<svg width="28" height="28" viewBox="0 0 28 28" fill="none" xmlns="http://www.w3.org/2000/svg">
<path fill-rule="evenodd" clip-rule="evenodd" d="M20.6952 11.8476C20.6952 16.734 16.734 20.6952 11.8476 20.6952C6.96121 20.6952 3 16.734 3 11.8476C3 6.96121 6.96121 3 11.8476 3C16.734 3 20.6952 6.96121 20.6952 11.8476ZM18.2551 19.3258C16.5328 20.8029 14.2944 21.6952 11.8476 21.6952C6.40893 21.6952 2 17.2863 2 11.8476C2 6.40893 6.40893 2 11.8476 2C17.2863 2 21.6952 6.40893 21.6952 11.8476C21.6952 14.2942 20.8031 16.5323 19.3263 18.2545L26.0005 24.9287L24.9293 26L18.2551 19.3258Z" fill="white"/>
</svg>
