<svg width="314" height="34" viewBox="0 0 314 34" fill="none" xmlns="http://www.w3.org/2000/svg">
<path d="M19.6 22C19.6 27 15 29.56 10.04 29.56C6.6 29.56 3 28.36 0.64 25.84L2.12 19.68C1.72 26.16 5.92 29.12 9.84 29.12C13.16 29.12 16.28 27 16.28 23C16.28 14.84 2.16 15.12 2.16 6.88C2.16 2.36 6 0.479998 9.96 0.479998C12.56 0.479998 15.24 1.32 16.84 2.72L16.28 7.76C16.28 2.96 13.24 0.88 10.28 0.88C7.56 0.88 4.88 2.68 4.88 5.72C4.88 12.64 19.6 12.96 19.6 22ZM27.2438 25.12C27.2438 28.4 28.4838 28.76 30.2438 29H21.0438C22.8438 28.76 24.0438 28.4 24.0438 25.12V4.88C24.0438 1.6 22.8438 1.24 21.0438 0.999998H29.5638C42.9238 0.959999 42.8838 20.44 29.5638 20.44V20.24C38.5638 20.24 38.6038 1.36 29.5638 1.36H29.4838C27.8438 1.36 27.2438 1.76 27.2438 4.72V25.12ZM47.5953 25.12C47.5953 28.4 48.8353 28.76 50.5953 29H41.3953C43.1953 28.76 44.3953 28.4 44.3953 25.12V4.88C44.3953 1.6 43.1953 1.24 41.3953 0.999998H50.5953C48.8353 1.24 47.5953 1.6 47.5953 4.88V25.12ZM82.6759 26.2C80.1959 28.36 78.1959 29.2 76.4359 29.2C70.3959 29.2 67.6759 19.36 61.5559 20.44V20.32C70.7559 18.44 70.1959 1.36 61.5559 1.36H61.4759C59.8359 1.36 59.2759 1.76 59.2759 4.72V25.12C59.2759 28.4 60.4759 28.76 62.2759 29H53.0359C54.8359 28.76 56.0359 28.4 56.0359 25.12V4.88C56.0359 1.6 54.8359 1.24 53.0359 0.999998H61.5559C73.5959 0.959999 75.7559 16.28 64.2359 19.84C72.3159 19.16 72.6759 27.04 78.5559 27.04C79.6759 27.04 80.9559 26.76 82.5559 26.08L82.6759 26.2ZM80.8759 17.04C80.8759 20.32 82.0759 20.72 83.8759 20.92H74.9159C76.6759 20.72 77.9159 20.36 77.9159 17.08V4.84C77.9159 1.56 76.6759 1.24 74.9159 0.999998H83.8759C82.0759 1.24 80.8759 1.6 80.8759 4.88V17.04ZM96.2781 25.12C96.2781 28.4 97.4781 28.76 99.2381 29H90.0381C91.8381 28.76 93.0381 28.4 93.0381 25.12V1.36H92.9981C86.8381 1.36 86.1181 6.48 85.6781 7.8L86.8381 0.999998H102.438L103.638 7.8C103.158 6.48 102.438 1.36 96.3181 1.36H96.2781V25.12ZM153.059 32.72C151.419 33.2 149.499 33.52 147.459 33.52C140.979 33.52 133.379 30.4 130.139 19.96H121.339L120.579 22.36C118.659 28.6 120.219 28.76 122.939 29H114.419C117.699 28.72 118.499 27.96 120.379 22L127.139 0.439998H127.339L133.259 19.04C136.739 30.16 143.939 33 149.299 33C150.699 33 151.979 32.8 153.019 32.52L153.059 32.72ZM125.819 5.64L121.459 19.6H130.059L125.819 5.64ZM148.806 0.999998C166.206 0.959999 166.206 29 148.806 29H139.286C141.086 28.76 142.286 28.4 142.286 25.12V4.88C142.286 1.6 141.086 1.24 139.286 0.999998H148.806ZM145.486 25.28C145.486 28.12 145.766 28.6 148.806 28.64C161.406 28.64 161.566 1.92 149.206 1.36C145.806 1.36 145.486 1.76 145.486 4.72V25.28ZM186.277 0.999998C182.997 1.28 182.197 2.04 180.317 8.04L173.557 29.56H173.357L165.597 5.12C164.517 1.76 163.437 1.32 160.357 0.999998H171.757C169.117 1.24 168.277 2.56 169.117 5.4L174.877 24.36L180.077 7.68C182.037 1.48 180.477 1.24 177.757 0.999998H186.277ZM204.371 22.2L203.211 28.96V29H185.731C187.531 28.76 188.731 28.4 188.731 25.12V4.88C188.731 1.6 187.531 1.24 185.731 0.999998H202.731L203.891 7.8C203.451 6.48 202.731 1.36 196.571 1.36H191.931V14.08H197.171C199.731 14.08 199.971 11.8 200.211 10.32V18.2C199.971 16.76 199.731 14.44 197.171 14.44H191.931V25.28C191.931 28.24 192.171 28.64 195.611 28.64H197.051C203.211 28.64 203.931 23.52 204.371 22.2ZM227.786 0.999998C226.026 1.24 224.786 3.6 224.786 6.88V29.52H224.426L210.186 4.28V23.12C210.186 26.4 211.386 28.76 213.146 29H206.826C208.626 28.76 209.826 26.4 209.826 23.12V6.4C209.826 3.12 208.866 1.64 206.826 0.999998H212.266L224.466 22.44V6.88C224.466 3.6 223.226 1.24 221.466 0.999998H227.786ZM240.223 25.12C240.223 28.4 241.423 28.76 243.183 29H233.983C235.783 28.76 236.983 28.4 236.983 25.12V1.36H236.943C230.783 1.36 230.063 6.48 229.623 7.8L230.783 0.999998H246.383L247.583 7.8C247.103 6.48 246.383 1.36 240.263 1.36H240.223V25.12ZM269.484 20.64C269.564 26.6 265.244 29.6 260.924 29.6C256.604 29.6 252.324 26.6 252.364 20.64V4.88C252.364 1.6 251.164 1.24 249.364 0.999998H258.604C256.804 1.24 255.604 1.6 255.604 4.88V20.64C255.604 26 258.884 28.56 262.204 28.56C265.644 28.56 269.124 25.84 269.124 20.64V6.88C269.124 3.6 267.924 1.24 266.124 0.999998H272.444C270.684 1.24 269.484 3.6 269.484 6.88V20.64ZM312.491 25.2C308.811 28.32 305.771 29.48 303.051 29.48C295.011 29.48 290.251 19.2 282.611 20.44V20.32C292.251 17.84 291.251 1.36 282.611 1.36H282.531C280.891 1.36 280.291 1.76 280.291 4.72V25.12C280.291 28.4 281.531 28.76 283.291 29H274.091C275.891 28.76 277.091 28.4 277.091 25.12V4.88C277.091 1.6 275.891 1.24 274.091 0.999998H282.611C294.611 0.959999 296.771 16.28 285.291 19.84C294.251 19.08 298.291 27.48 305.411 27.48C307.411 27.48 309.691 26.8 312.371 25.04L312.491 25.2ZM306.571 20.6C312.731 20.6 313.251 16.6 313.691 15.28L312.731 20.92H296.491C298.291 20.72 299.251 20.32 299.251 17.08V4.88C299.251 1.6 298.291 1.24 296.491 0.999998C302.171 0.999998 306.571 0.999998 312.211 0.999998L313.131 6.32C312.691 5 312.211 1.36 306.051 1.36H302.211V10.08H306.691C309.251 10.08 309.491 8.28 309.731 6.8V13.68C309.491 12.2 309.251 10.44 306.691 10.44L302.211 10.4V17.2C302.211 20.16 302.771 20.6 306.171 20.6H306.571Z" fill="white"/>
</svg>
