<svg width="95" height="11" viewBox="0 0 95 11" fill="none" xmlns="http://www.w3.org/2000/svg">
<path d="M5.88 6.9C5.88 8.4 4.5 9.168 3.012 9.168C1.98 9.168 0.9 8.808 0.192 8.052L0.636 6.204C0.516 8.148 1.776 9.036 2.952 9.036C3.948 9.036 4.884 8.4 4.884 7.2C4.884 4.752 0.648 4.836 0.648 2.364C0.648 1.008 1.8 0.443999 2.988 0.443999C3.768 0.443999 4.572 0.696 5.052 1.116L4.884 2.628C4.884 1.188 3.972 0.564 3.084 0.564C2.268 0.564 1.464 1.104 1.464 2.016C1.464 4.092 5.88 4.188 5.88 6.9ZM8.17313 7.836C8.17313 8.82 8.54513 8.928 9.07313 9H6.31313C6.85313 8.928 7.21313 8.82 7.21313 7.836V1.764C7.21313 0.779999 6.85313 0.672 6.31313 0.599999H8.86913C12.8771 0.588 12.8651 6.432 8.86913 6.432V6.372C11.5691 6.372 11.5811 0.707999 8.86913 0.707999H8.84513C8.35313 0.707999 8.17313 0.827999 8.17313 1.716V7.836ZM14.2786 7.836C14.2786 8.82 14.6506 8.928 15.1786 9H12.4186C12.9586 8.928 13.3186 8.82 13.3186 7.836V1.764C13.3186 0.779999 12.9586 0.672 12.4186 0.599999H15.1786C14.6506 0.672 14.2786 0.779999 14.2786 1.764V7.836ZM24.8028 8.16C24.0588 8.808 23.4588 9.06 22.9308 9.06C21.1188 9.06 20.3028 6.108 18.4668 6.432V6.396C21.2268 5.832 21.0588 0.707999 18.4668 0.707999H18.4428C17.9508 0.707999 17.7828 0.827999 17.7828 1.716V7.836C17.7828 8.82 18.1428 8.928 18.6828 9H15.9108C16.4508 8.928 16.8108 8.82 16.8108 7.836V1.764C16.8108 0.779999 16.4508 0.672 15.9108 0.599999H18.4668C22.0788 0.588 22.7268 5.184 19.2708 6.252C21.6948 6.048 21.8028 8.412 23.5668 8.412C23.9028 8.412 24.2868 8.328 24.7668 8.124L24.8028 8.16ZM24.2628 5.412C24.2628 6.396 24.6228 6.516 25.1628 6.576H22.4748C23.0028 6.516 23.3748 6.408 23.3748 5.424V1.752C23.3748 0.767999 23.0028 0.672 22.4748 0.599999H25.1628C24.6228 0.672 24.2628 0.779999 24.2628 1.764V5.412ZM28.8834 7.836C28.8834 8.82 29.2434 8.928 29.7714 9H27.0114C27.5514 8.928 27.9114 8.82 27.9114 7.836V0.707999H27.8994C26.0514 0.707999 25.8354 2.244 25.7034 2.64L26.0514 0.599999H30.7314L31.0914 2.64C30.9474 2.244 30.7314 0.707999 28.8954 0.707999H28.8834V7.836ZM45.9176 10.116C45.4256 10.26 44.8496 10.356 44.2376 10.356C42.2936 10.356 40.0136 9.42 39.0416 6.288H36.4016L36.1736 7.008C35.5976 8.88 36.0656 8.928 36.8816 9H34.3256C35.3096 8.916 35.5496 8.688 36.1136 6.9L38.1416 0.431999H38.2016L39.9776 6.012C41.0216 9.348 43.1816 10.2 44.7896 10.2C45.2096 10.2 45.5936 10.14 45.9056 10.056L45.9176 10.116ZM37.7456 1.992L36.4376 6.18H39.0176L37.7456 1.992ZM44.6418 0.599999C49.8618 0.588 49.8618 9 44.6418 9H41.7858C42.3258 8.928 42.6858 8.82 42.6858 7.836V1.764C42.6858 0.779999 42.3258 0.672 41.7858 0.599999H44.6418ZM43.6458 7.884C43.6458 8.736 43.7298 8.88 44.6418 8.892C48.4218 8.892 48.4698 0.875999 44.7618 0.707999C43.7418 0.707999 43.6458 0.827999 43.6458 1.716V7.884ZM55.8832 0.599999C54.8992 0.684 54.6592 0.912 54.0952 2.712L52.0672 9.168H52.0072L49.6792 1.836C49.3552 0.827999 49.0312 0.696 48.1072 0.599999H51.5272C50.7352 0.672 50.4832 1.068 50.7352 1.92L52.4632 7.608L54.0232 2.604C54.6112 0.744 54.1432 0.672 53.3272 0.599999H55.8832ZM61.3114 6.96L60.9634 8.988V9H55.7194C56.2594 8.928 56.6194 8.82 56.6194 7.836V1.764C56.6194 0.779999 56.2594 0.672 55.7194 0.599999H60.8194L61.1674 2.64C61.0354 2.244 60.8194 0.707999 58.9714 0.707999H57.5794V4.524H59.1514C59.9194 4.524 59.9914 3.84 60.0634 3.396V5.76C59.9914 5.328 59.9194 4.632 59.1514 4.632H57.5794V7.884C57.5794 8.772 57.6514 8.892 58.6834 8.892H59.1154C60.9634 8.892 61.1794 7.356 61.3114 6.96ZM68.3358 0.599999C67.8078 0.672 67.4358 1.38 67.4358 2.364V9.156H67.3278L63.0558 1.584V7.236C63.0558 8.22 63.4158 8.928 63.9438 9H62.0478C62.5878 8.928 62.9478 8.22 62.9478 7.236V2.22C62.9478 1.236 62.6598 0.792 62.0478 0.599999H63.6798L67.3398 7.032V2.364C67.3398 1.38 66.9678 0.672 66.4398 0.599999H68.3358ZM72.067 7.836C72.067 8.82 72.427 8.928 72.955 9H70.195C70.735 8.928 71.095 8.82 71.095 7.836V0.707999H71.083C69.235 0.707999 69.019 2.244 68.887 2.64L69.235 0.599999H73.915L74.275 2.64C74.131 2.244 73.915 0.707999 72.079 0.707999H72.067V7.836ZM80.8452 6.492C80.8692 8.28 79.5732 9.18 78.2772 9.18C76.9812 9.18 75.6972 8.28 75.7092 6.492V1.764C75.7092 0.779999 75.3492 0.672 74.8092 0.599999H77.5812C77.0412 0.672 76.6812 0.779999 76.6812 1.764V6.492C76.6812 8.1 77.6652 8.868 78.6612 8.868C79.6932 8.868 80.7372 8.052 80.7372 6.492V2.364C80.7372 1.38 80.3772 0.672 79.8372 0.599999H81.7332C81.2052 0.672 80.8452 1.38 80.8452 2.364V6.492ZM93.7472 7.86C92.6432 8.796 91.7312 9.144 90.9152 9.144C88.5032 9.144 87.0752 6.06 84.7832 6.432V6.396C87.6752 5.652 87.3752 0.707999 84.7832 0.707999H84.7592C84.2672 0.707999 84.0872 0.827999 84.0872 1.716V7.836C84.0872 8.82 84.4592 8.928 84.9872 9H82.2272C82.7672 8.928 83.1272 8.82 83.1272 7.836V1.764C83.1272 0.779999 82.7672 0.672 82.2272 0.599999H84.7832C88.3832 0.588 89.0312 5.184 85.5872 6.252C88.2752 6.024 89.4872 8.544 91.6232 8.544C92.2232 8.544 92.9072 8.34 93.7112 7.812L93.7472 7.86ZM91.9712 6.48C93.8192 6.48 93.9752 5.28 94.1072 4.884L93.8192 6.576H88.9472C89.4872 6.516 89.7752 6.396 89.7752 5.424V1.764C89.7752 0.779999 89.4872 0.672 88.9472 0.599999C90.6512 0.599999 91.9712 0.599999 93.6632 0.599999L93.9392 2.196C93.8072 1.8 93.6632 0.707999 91.8152 0.707999H90.6632V3.324H92.0072C92.7752 3.324 92.8472 2.784 92.9192 2.34V4.404C92.8472 3.96 92.7752 3.432 92.0072 3.432L90.6632 3.42V5.46C90.6632 6.348 90.8312 6.48 91.8512 6.48H91.9712Z" fill="white"/>
</svg>
