<svg width="388" height="48" viewBox="0 0 388 48" fill="none" xmlns="http://www.w3.org/2000/svg">
<path d="M44.032 37.208C39.104 44.632 31.68 47.96 24.32 47.96C12.48 47.96 0.96 39.256 0.96 24.728C0.96 9.944 12.352 0.983997 24.576 0.983997C29.952 0.983997 35.456 2.712 40.256 6.36L38.208 15.704C39.36 6.936 32.448 1.944 24.832 1.944C16.192 1.944 6.72 8.28 6.72 22.68C6.72 37.848 16.96 45.336 27.2 45.336C33.408 45.336 39.616 42.584 43.52 37.016L44.032 37.208ZM115.193 37.208C110.265 44.632 102.841 47.96 95.481 47.96C91.065 47.96 86.649 46.744 82.873 44.44C79.033 46.808 74.489 47.96 69.945 47.96C58.297 47.96 46.585 40.152 46.585 24.6C46.585 8.984 58.233 1.24 69.945 1.24C74.425 1.24 78.969 2.392 82.809 4.696C86.649 2.264 91.129 0.983997 95.801 0.983997C101.113 0.983997 106.681 2.712 111.481 6.36L109.369 15.704C110.521 6.936 103.609 1.944 95.929 1.944C92.025 1.944 87.993 3.224 84.665 5.976C89.785 9.816 93.305 16.024 93.305 24.6C93.305 32.088 90.617 37.72 86.521 41.624C90.041 44.12 94.201 45.336 98.361 45.336C104.569 45.336 110.777 42.584 114.681 37.016L115.193 37.208ZM51.705 20.504C51.705 38.36 62.137 47.064 71.865 47.064C75.449 47.064 78.841 45.912 81.657 43.608C76.025 39.704 72.121 33.176 72.121 24.728C72.121 17.112 75.193 11.032 79.801 6.936C76.153 3.736 71.737 2.136 67.449 2.136C59.257 2.136 51.705 8.152 51.705 20.504ZM77.881 22.68C77.881 30.616 80.633 36.44 84.793 40.216C86.905 37.144 88.185 32.984 88.185 27.8C88.249 19.544 85.689 13.272 81.913 8.92C79.417 12.248 77.881 16.792 77.881 22.68ZM149.243 46.232C147.579 47 145.787 47.64 143.995 47.64C140.731 47.64 138.427 45.912 135.291 40.408L127.291 26.584V26.52L138.555 9.368C141.627 4.696 141.563 2.2 138.299 2.2C142.203 2.2 144.827 2.2 148.667 2.2C145.659 2.456 142.907 3.864 139.323 9.368L130.555 22.68L141.179 40.152C144.507 45.72 145.851 46.232 149.243 46.232ZM126.779 40.792C126.779 46.04 128.763 46.616 131.579 47H116.859C119.739 46.616 121.659 46.04 121.659 40.792V8.408C121.659 3.16 119.739 2.584 116.859 2.2H131.579C128.763 2.584 126.779 3.16 126.779 8.408V40.792ZM167.483 40.792C167.483 46.04 169.403 46.616 172.219 47H157.499C160.379 46.616 162.299 46.04 162.299 40.792V2.776H162.235C152.379 2.776 151.227 10.968 150.523 13.08L152.379 2.2H177.339L179.259 13.08C178.491 10.968 177.339 2.776 167.547 2.776H167.483V40.792ZM184.053 36.312C180.917 46.296 183.413 46.616 187.765 47H174.133C179.381 46.552 180.661 45.336 183.669 35.736L194.485 1.304H194.805L207.157 40.216C208.885 45.784 210.613 46.488 215.605 47H197.365C201.589 46.616 202.997 44.44 201.589 39.896L199.349 32.472H185.205L184.053 36.312ZM192.373 9.624L185.397 31.96H199.157L192.373 9.624ZM225.278 40.792C225.278 46.04 227.262 46.616 230.078 47H215.358C218.238 46.616 220.158 46.04 220.158 40.792V8.408C220.158 3.16 218.238 2.584 215.358 2.2H230.078C227.262 2.584 225.278 3.16 225.278 8.408V40.792ZM250.495 46.424C260.351 46.424 261.503 38.232 262.207 36.12L260.351 47H233.983C236.863 46.616 238.783 46.04 238.783 40.792V8.408C238.783 3.16 236.863 2.584 233.983 2.2H248.703C245.887 2.584 243.903 3.16 243.903 8.408V41.048C243.903 45.784 244.287 46.424 249.791 46.424H250.495ZM288.74 36.312C285.604 46.296 288.1 46.616 292.452 47H278.82C284.068 46.552 285.348 45.336 288.356 35.736L299.172 1.304H299.492L311.844 40.216C313.572 45.784 315.3 46.488 320.292 47H302.052C306.276 46.616 307.684 44.44 306.276 39.896L304.036 32.472H289.892L288.74 36.312ZM297.06 9.624L290.084 31.96H303.844L297.06 9.624ZM353.517 46.232C352.429 47.192 350.701 47.704 349.101 47.704C345.837 47.704 343.213 46.552 340.781 40.408C338.413 34.52 336.365 33.304 333.677 33.304V33.176C348.077 33.176 348.141 2.776 333.677 2.776H333.549C330.925 2.776 330.029 3.416 330.029 8.152V40.792C330.029 46.04 331.949 46.616 334.829 47H320.045C322.925 46.616 324.845 46.04 324.845 40.792V8.408C324.845 3.16 322.925 2.584 320.045 2.2H333.677C354.669 2.136 355.245 32.152 336.685 33.24C341.741 33.688 343.981 35.48 346.221 40.152C348.333 44.568 349.933 46.488 352.045 46.488C352.493 46.488 353.005 46.424 353.517 46.232ZM370.17 40.792C370.17 46.04 372.09 46.616 374.906 47H360.186C363.066 46.616 364.986 46.04 364.986 40.792V2.776H364.922C355.066 2.776 353.914 10.968 353.21 13.08L355.066 2.2H380.026L381.946 13.08C381.178 10.968 380.026 2.776 370.234 2.776H370.17V40.792ZM387.993 44.696C387.993 46.296 386.713 47.576 385.113 47.576C383.513 47.576 382.233 46.296 382.233 44.696C382.233 43.096 383.513 41.752 385.113 41.752C386.713 41.752 387.993 43.096 387.993 44.696Z" fill="white"/>
</svg>
