<svg width="240" height="103" viewBox="0 0 240 103" fill="none" xmlns="http://www.w3.org/2000/svg">
<path d="M23.52 26.6C23.52 32.6 18 35.672 12.048 35.672C7.92 35.672 3.6 34.232 0.768 31.208L2.544 23.816C2.064 31.592 7.104 35.144 11.808 35.144C15.792 35.144 19.536 32.6 19.536 27.8C19.536 18.008 2.592 18.344 2.592 8.456C2.592 3.032 7.2 0.775997 11.952 0.775997C15.072 0.775997 18.288 1.784 20.208 3.464L19.536 9.512C19.536 3.752 15.888 1.256 12.336 1.256C9.072 1.256 5.856 3.416 5.856 7.064C5.856 15.368 23.52 15.752 23.52 26.6ZM32.6925 30.344C32.6925 34.28 34.1805 34.712 36.2925 35H25.2525C27.4125 34.712 28.8525 34.28 28.8525 30.344V6.056C28.8525 2.12 27.4125 1.688 25.2525 1.4H35.4765C51.5085 1.352 51.4605 24.728 35.4765 24.728V24.488C46.2765 24.488 46.3245 1.832 35.4765 1.832H35.3805C33.4125 1.832 32.6925 2.312 32.6925 5.864V30.344ZM57.1144 30.344C57.1144 34.28 58.6024 34.712 60.7144 35H49.6744C51.8344 34.712 53.2744 34.28 53.2744 30.344V6.056C53.2744 2.12 51.8344 1.688 49.6744 1.4H60.7144C58.6024 1.688 57.1144 2.12 57.1144 6.056V30.344ZM99.2111 31.64C96.2351 34.232 93.8351 35.24 91.7231 35.24C84.4751 35.24 81.2111 23.432 73.8671 24.728V24.584C84.9071 22.328 84.2351 1.832 73.8671 1.832H73.7711C71.8031 1.832 71.1311 2.312 71.1311 5.864V30.344C71.1311 34.28 72.5711 34.712 74.7311 35H63.6431C65.8031 34.712 67.2431 34.28 67.2431 30.344V6.056C67.2431 2.12 65.8031 1.688 63.6431 1.4H73.8671C88.3151 1.352 90.9071 19.736 77.0831 24.008C86.7791 23.192 87.2111 32.648 94.2671 32.648C95.6111 32.648 97.1471 32.312 99.0671 31.496L99.2111 31.64ZM97.0511 20.648C97.0511 24.584 98.4911 25.064 100.651 25.304H89.8991C92.0111 25.064 93.4991 24.632 93.4991 20.696V6.008C93.4991 2.072 92.0111 1.688 89.8991 1.4H100.651C98.4911 1.688 97.0511 2.12 97.0511 6.056V20.648ZM115.534 30.344C115.534 34.28 116.974 34.712 119.086 35H108.046C110.206 34.712 111.646 34.28 111.646 30.344V1.832H111.598C104.206 1.832 103.342 7.976 102.814 9.56L104.206 1.4H122.926L124.366 9.56C123.79 7.976 122.926 1.832 115.582 1.832H115.534V30.344ZM46.608 101.464C44.64 102.04 42.336 102.424 39.888 102.424C32.112 102.424 22.992 98.68 19.104 86.152H8.544L7.632 89.032C5.328 96.52 7.2 96.712 10.464 97H0.24C4.176 96.664 5.136 95.752 7.392 88.6L15.504 62.728H15.744L22.848 85.048C27.024 98.392 35.664 101.8 42.096 101.8C43.776 101.8 45.312 101.56 46.56 101.224L46.608 101.464ZM13.92 68.968L8.688 85.72H19.008L13.92 68.968ZM41.5046 63.4C62.3846 63.352 62.3846 97 41.5046 97H30.0806C32.2406 96.712 33.6806 96.28 33.6806 92.344V68.056C33.6806 64.12 32.2406 63.688 30.0806 63.4H41.5046ZM37.5206 92.536C37.5206 95.944 37.8566 96.52 41.5046 96.568C56.6246 96.568 56.8166 64.504 41.9846 63.832C37.9046 63.832 37.5206 64.312 37.5206 67.864V92.536ZM86.4701 63.4C82.5341 63.736 81.5741 64.648 79.3181 71.848L71.2061 97.672H70.9661L61.6541 68.344C60.3581 64.312 59.0621 63.784 55.3661 63.4H69.0461C65.8781 63.688 64.8701 65.272 65.8781 68.68L72.7901 91.432L79.0301 71.416C81.3821 63.976 79.5101 63.688 76.2461 63.4H86.4701ZM108.183 88.84L106.791 96.952V97H85.815C87.975 96.712 89.415 96.28 89.415 92.344V68.056C89.415 64.12 87.975 63.688 85.815 63.4H106.215L107.607 71.56C107.079 69.976 106.215 63.832 98.823 63.832H93.255V79.096H99.543C102.615 79.096 102.903 76.36 103.191 74.584V84.04C102.903 82.312 102.615 79.528 99.543 79.528H93.255V92.536C93.255 96.088 93.543 96.568 97.671 96.568H99.399C106.791 96.568 107.655 90.424 108.183 88.84ZM136.281 63.4C134.169 63.688 132.681 66.52 132.681 70.456V97.624H132.249L115.161 67.336V89.944C115.161 93.88 116.601 96.712 118.713 97H111.129C113.289 96.712 114.729 93.88 114.729 89.944V69.88C114.729 65.944 113.577 64.168 111.129 63.4H117.657L132.297 89.128V70.456C132.297 66.52 130.809 63.688 128.697 63.4H136.281ZM151.206 92.344C151.206 96.28 152.646 96.712 154.758 97H143.718C145.878 96.712 147.318 96.28 147.318 92.344V63.832H147.27C139.878 63.832 139.014 69.976 138.486 71.56L139.878 63.4H158.598L160.038 71.56C159.462 69.976 158.598 63.832 151.254 63.832H151.206V92.344ZM186.318 86.968C186.414 94.12 181.23 97.72 176.046 97.72C170.862 97.72 165.726 94.12 165.774 86.968V68.056C165.774 64.12 164.334 63.688 162.174 63.4H173.262C171.102 63.688 169.662 64.12 169.662 68.056V86.968C169.662 93.4 173.598 96.472 177.582 96.472C181.71 96.472 185.886 93.208 185.886 86.968V70.456C185.886 66.52 184.446 63.688 182.286 63.4H189.87C187.758 63.688 186.318 66.52 186.318 70.456V86.968ZM237.926 92.44C233.51 96.184 229.862 97.576 226.598 97.576C216.95 97.576 211.238 85.24 202.07 86.728V86.584C213.638 83.608 212.438 63.832 202.07 63.832H201.974C200.006 63.832 199.286 64.312 199.286 67.864V92.344C199.286 96.28 200.774 96.712 202.886 97H191.846C194.006 96.712 195.446 96.28 195.446 92.344V68.056C195.446 64.12 194.006 63.688 191.846 63.4H202.07C216.47 63.352 219.062 81.736 205.286 86.008C216.038 85.096 220.886 95.176 229.43 95.176C231.83 95.176 234.566 94.36 237.782 92.248L237.926 92.44ZM230.822 86.92C238.214 86.92 238.838 82.12 239.366 80.536L238.214 87.304H218.726C220.886 87.064 222.038 86.584 222.038 82.696V68.056C222.038 64.12 220.886 63.688 218.726 63.4C225.542 63.4 230.822 63.4 237.59 63.4L238.694 69.784C238.166 68.2 237.59 63.832 230.198 63.832H225.59V74.296H230.966C234.038 74.296 234.326 72.136 234.614 70.36V78.616C234.326 76.84 234.038 74.728 230.966 74.728L225.59 74.68V82.84C225.59 86.392 226.262 86.92 230.342 86.92H230.822Z" fill="white"/>
</svg>
