<svg width="187" height="187" viewBox="0 0 187 187" fill="none" xmlns="http://www.w3.org/2000/svg">
<path d="M163.293 23.7074C166.216 26.6305 166.216 31.3699 163.293 34.2931C160.37 37.2163 155.63 37.2163 152.707 34.2931C149.784 31.3699 149.784 26.6305 152.707 23.7074C155.63 20.7842 160.37 20.7842 163.293 23.7074Z" stroke="black" stroke-width="2"/>
<circle cx="26" cy="161" r="4.24263" transform="rotate(-45 26 161)" fill="black"/>
<rect x="152" y="33" width="2.82842" height="176.776" transform="rotate(45 152 33)" fill="black"/>
<circle cx="100" cy="87.0003" r="32.5268" transform="rotate(45 100 87.0003)" fill="#A40615"/>
<circle cx="59.9995" cy="127" r="32.5268" transform="rotate(45 59.9995 127)" fill="#A40615"/>
<circle cx="62.5" cy="145.351" r="5.5" fill="white"/>
<circle cx="70" cy="142.851" r="4" fill="white"/>
<circle cx="103" cy="105.851" r="6" fill="white"/>
<circle cx="110" cy="102.851" r="4" fill="white"/>
<path d="M163.293 23.7074C166.216 26.6305 166.216 31.3699 163.293 34.2931C160.37 37.2163 155.63 37.2163 152.707 34.2931C149.784 31.3699 149.784 26.6305 152.707 23.7074C155.63 20.7842 160.37 20.7842 163.293 23.7074Z" stroke="black" stroke-width="2"/>
<rect x="152" y="33" width="2.82842" height="176.776" transform="rotate(45 152 33)" fill="black"/>
<circle cx="100" cy="87.0003" r="32.5268" transform="rotate(45 100 87.0003)" fill="#A40615"/>
<circle cx="59.9995" cy="127" r="32.5268" transform="rotate(45 59.9995 127)" fill="#A40615"/>
<circle cx="62.5" cy="145.351" r="5.5" fill="white"/>
<circle cx="70" cy="142.851" r="4" fill="white"/>
<circle cx="103" cy="105.851" r="6" fill="white"/>
<circle cx="110" cy="102.851" r="4" fill="white"/>
</svg>
